<svg width="33" height="33" viewBox="0 0 33 33" fill="none" xmlns="http://www.w3.org/2000/svg">
<ellipse cx="15.5" cy="16" rx="13.5" ry="13" fill="#3B755F"/>
<path fill-rule="evenodd" clip-rule="evenodd" d="M16.1278 0C7.22067 0 0 7.22067 0 16.1278C0 25.035 7.22067 32.2556 16.1278 32.2556C25.035 32.2556 32.2556 25.035 32.2556 16.1278C32.2556 7.22067 25.035 0 16.1278 0ZM17.0739 26.902C10.4505 27.35 5.35828 15.0929 7.74767 12.712C9.92747 10.54 10.7928 11.3164 11.2022 13.1351C11.4308 14.1507 11.2611 15.3968 11.1082 16.5198C10.9753 17.4957 10.8551 18.3786 11.0199 18.9364C11.3745 20.1361 11.983 21.0869 12.6837 21.0194C13.3843 20.9519 14.4706 19.0672 12.1327 11.8603C10.4101 6.55005 15.0333 4.71434 15.4568 5.81957C15.648 6.3185 15.3858 7.13542 15.0779 8.09511C14.7036 9.26132 14.2617 10.6384 14.4834 11.9118C14.6648 12.954 14.8379 13.5329 14.9925 14.0499C15.1823 14.6844 15.3442 15.2256 15.4593 16.4159C15.5081 16.9198 15.4846 17.5648 15.4597 18.2503C15.3968 19.9817 15.3244 21.9723 16.382 22.6057C17.8583 23.4899 18.5058 19.1904 17.0843 11.4222C15.8078 4.44659 20.3891 6.59766 20.51 8.71227C20.6308 10.8269 20.4968 14.0037 19.6422 18.4458C18.7877 22.888 19.4092 23.2538 20.51 22.1366C21.6107 21.0194 21.6722 20.2297 21.0345 15.8257C20.5998 12.8241 25.2982 11.2952 24.7916 15.2393C24.2816 19.2093 21.9733 26.5706 17.0739 26.902Z" fill="#F9F9F9"/>
</svg>
