<svg width="33" height="33" viewBox="0 0 33 33" fill="none" xmlns="http://www.w3.org/2000/svg">
<path fill-rule="evenodd" clip-rule="evenodd" d="M16.7594 0.296997C7.85226 0.296997 0.631592 7.51767 0.631592 16.4248C0.631592 25.332 7.85226 32.5526 16.7594 32.5526C25.6666 32.5526 32.8872 25.332 32.8872 16.4248C32.8872 7.51767 25.6666 0.296997 16.7594 0.296997ZM17.7055 27.199C11.0821 27.647 5.98988 15.3899 8.37926 13.009C10.5591 10.837 11.4244 11.6134 11.8337 13.4321C12.0624 14.4477 11.8927 15.6938 11.7398 16.8168C11.6069 17.7927 11.4866 18.6756 11.6515 19.2334C12.0061 20.4331 12.6146 21.3839 13.3152 21.3164C14.0159 21.2489 15.1022 19.3642 12.7643 12.1573C11.0417 6.84704 15.6649 5.01134 16.0884 6.11656C16.2796 6.6155 16.0174 7.43242 15.7094 8.39211C15.3352 9.55832 14.8933 10.9354 15.115 12.2088C15.2964 13.251 15.4695 13.8299 15.6241 14.3469C15.8139 14.9814 15.9758 15.5226 16.0909 16.7129C16.1397 17.2168 16.1162 17.8618 16.0913 18.5473C16.0284 20.2787 15.956 22.2693 17.0136 22.9027C18.4899 23.7869 19.1374 19.4874 17.7159 11.7192C16.4394 4.74359 21.0207 6.89465 21.1415 9.00927C21.2624 11.1239 21.1284 14.3007 20.2738 18.7428C19.4193 23.185 20.0408 23.5508 21.1415 22.4336C22.2423 21.3164 22.3038 20.5267 21.6661 16.1227C21.2314 13.1211 25.9298 11.5922 25.4232 15.5363C24.9132 19.5063 22.6049 26.8676 17.7055 27.199Z" fill="#F9F9F9"/>
</svg>
